<svg width="512" height="512" viewBox="0 0 512 512" fill="none" xmlns="http://www.w3.org/2000/svg">
<path fill-rule="evenodd" clip-rule="evenodd" d="M82.9058 156.448C64.9686 186.344 56 219.528 56 256C56 291.874 64.9686 325.058 82.9058 355.552C100.843 386.045 125.058 410.26 155.552 428.197C186.045 446.732 219.528 456 256 456C293.07 456 326.553 446.732 356.448 428.197C386.942 410.26 411.157 386.045 429.094 355.552C447.031 325.058 456 291.874 456 256C456 219.528 447.031 186.344 429.094 156.448C411.157 125.955 386.942 101.74 356.448 83.8027C326.553 65.2676 293.07 56 256 56C219.528 56 186.045 65.2676 155.552 83.8027C125.058 101.74 100.843 125.955 82.9058 156.448Z" fill="#33607C"/>
</svg>
